<svg xmlns="http://www.w3.org/2000/svg" width="641.2537841796875" height="493.310302734375" viewBox="-212.13577270507812 -201.38157653808594 641.2537841796875 493.310302734375"><title>Neo4j Graph Visualization</title><desc>Created using Neo4j (http://www.neo4j.com/)</desc><g class="layer relationships"><g class="relationship" transform="translate(179.26795269539235 245.8758276503404) rotate(241.47651109816377)"><path class="outline" fill="#A5ABB6" stroke="none" d="M 25 0.5 L 67.11767188927654 0.5 L 67.11767188927654 -0.5 L 25 -0.5 Z M 92.23485938927654 0.5 L 134.35253127855307 0.5 L 134.35253127855307 3.5 L 141.35253127855307 0 L 134.35253127855307 -3.5 L 134.35253127855307 -0.5 L 92.23485938927654 -0.5 Z"/><text text-anchor="middle" pointer-events="none" font-size="8px" fill="#000000" x="79.67626563927654" y="3" transform="rotate(180 79.67626563927654 0)" font-family="sans-serif">idiom</text></g><g class="relationship" transform="translate(251.1639157722328 207.43241003601753) rotate(215.44301915667893)"><path class="outline" fill="#A5ABB6" stroke="none" d="M 25 0.5 L 76.81843269659404 0.5 L 76.81843269659404 -0.5 L 25 -0.5 Z M 101.93562019659404 0.5 L 153.7540528931881 0.5 L 153.7540528931881 3.5 L 160.7540528931881 0 L 153.7540528931881 -3.5 L 153.7540528931881 -0.5 L 101.93562019659404 -0.5 Z"/><text text-anchor="middle" pointer-events="none" font-size="8px" fill="#000000" x="89.37702644659404" y="3" transform="rotate(180 89.37702644659404 0)" font-family="sans-serif">idiom</text></g><g class="relationship" transform="translate(284.99172084341114 56.57196940972247) rotate(526.8839097345813)"><path class="outline" fill="#A5ABB6" stroke="none" d="M 25 0.5 L 79.00143699818376 0.5 L 79.00143699818376 -0.5 L 25 -0.5 Z M 104.11862449818376 0.5 L 158.12006149636753 0.5 L 158.12006149636753 3.5 L 165.12006149636753 0 L 158.12006149636753 -3.5 L 158.12006149636753 -0.5 L 104.11862449818376 -0.5 Z"/><text text-anchor="middle" pointer-events="none" font-size="8px" fill="#000000" x="91.56003074818376" y="3" transform="rotate(180 91.56003074818376 0)" font-family="sans-serif">idiom</text></g><g class="relationship" transform="translate(237.29476575742925 107.01084882627933) rotate(183.03814531651875)"><path class="outline" fill="#A5ABB6" stroke="none" d="M 25 0.5 L 52.76980023720783 0.5 L 52.76980023720783 -0.5 L 25 -0.5 Z M 77.88698773720783 0.5 L 105.65678797441566 0.5 L 105.65678797441566 3.5 L 112.65678797441566 0 L 105.65678797441566 -3.5 L 105.65678797441566 -0.5 L 77.88698773720783 -0.5 Z"/><text text-anchor="middle" pointer-events="none" font-size="8px" fill="#000000" x="65.32839398720783" y="3" transform="rotate(180 65.32839398720783 0)" font-family="sans-serif">idiom</text></g><g class="relationship" transform="translate(275.9485163731533 152.81540811128465) rotate(196.77841253893962)"><path class="outline" fill="#A5ABB6" stroke="none" d="M 25 0.5 L 75.91542278067314 0.5 L 75.91542278067314 -0.5 L 25 -0.5 Z M 101.03261028067314 0.5 L 151.94803306134628 0.5 L 151.94803306134628 3.5 L 158.94803306134628 0 L 151.94803306134628 -3.5 L 151.94803306134628 -0.5 L 101.03261028067314 -0.5 Z"/><text text-anchor="middle" pointer-events="none" font-size="8px" fill="#000000" x="88.47401653067314" y="3" transform="rotate(180 88.47401653067314 0)" font-family="sans-serif">idiom</text></g><g class="relationship" transform="translate(99.83145850288889 99.71492982473747) rotate(253.28957256753347)"><path class="outline" fill="#A5ABB6" stroke="none" d="M 25 0.5 L 47.08735860577087 0.5 L 47.08735860577087 -0.5 L 25 -0.5 Z M 72.20454610577087 0.5 L 94.29190471154175 0.5 L 94.29190471154175 3.5 L 101.29190471154175 0 L 94.29190471154175 -3.5 L 94.29190471154175 -0.5 L 72.20454610577087 -0.5 Z"/><text text-anchor="middle" pointer-events="none" font-size="8px" fill="#000000" x="59.64595235577087" y="3" transform="rotate(180 59.64595235577087 0)" font-family="sans-serif">idiom</text></g><g class="relationship" transform="translate(58.265275481898804 262.9286982368151) rotate(284.28797282586834)"><path class="outline" fill="#A5ABB6" stroke="none" d="M 25 0.5 L 68.1531657765141 0.5 L 68.1531657765141 -0.5 L 25 -0.5 Z M 93.2703532765141 0.5 L 136.4235190530282 0.5 L 136.4235190530282 3.5 L 143.4235190530282 0 L 136.4235190530282 -3.5 L 136.4235190530282 -0.5 L 93.2703532765141 -0.5 Z"/><text text-anchor="middle" pointer-events="none" font-size="8px" fill="#000000" x="80.7117595265141" y="3" font-family="sans-serif">idiom</text></g><g class="relationship" transform="translate(-41.07397667109018 105.1473686900766) rotate(357.7921239155944)"><path class="outline" fill="#A5ABB6" stroke="none" d="M 25 0.5 L 54.44646467419051 0.5 L 54.44646467419051 -0.5 L 25 -0.5 Z M 79.56365217419051 0.5 L 109.01011684838102 0.5 L 109.01011684838102 3.5 L 116.01011684838102 0 L 109.01011684838102 -3.5 L 109.01011684838102 -0.5 L 79.56365217419051 -0.5 Z"/><text text-anchor="middle" pointer-events="none" font-size="8px" fill="#000000" x="67.00505842419051" y="3" font-family="sans-serif">idiom</text></g><g class="relationship" transform="translate(99.83145850288889 99.71492982473747) rotate(435.4983630086518)"><path class="outline" fill="#A5ABB6" stroke="none" d="M 25 0.5 L 42.49531863532194 0.5 L 42.49531863532194 -0.5 L 25 -0.5 Z M 67.61250613532194 0.5 L 85.10782477064387 0.5 L 85.10782477064387 3.5 L 92.10782477064387 0 L 85.10782477064387 -3.5 L 85.10782477064387 -0.5 L 67.61250613532194 -0.5 Z"/><text text-anchor="middle" pointer-events="none" font-size="8px" fill="#000000" x="55.05391238532194" y="3" font-family="sans-serif">idiom</text></g><g class="relationship" transform="translate(212.55319732806868 161.5990084761807) rotate(208.76672517115276)"><path class="outline" fill="#A5ABB6" stroke="none" d="M 25 0.5 L 48.23726458144709 0.5 L 48.23726458144709 -0.5 L 25 -0.5 Z M 73.35445208144709 0.5 L 96.59171666289419 0.5 L 96.59171666289419 3.5 L 103.59171666289419 0 L 96.59171666289419 -3.5 L 96.59171666289419 -0.5 L 73.35445208144709 -0.5 Z"/><text text-anchor="middle" pointer-events="none" font-size="8px" fill="#000000" x="60.79585833144709" y="3" transform="rotate(180 60.79585833144709 0)" font-family="sans-serif">idiom</text></g><g class="relationship" transform="translate(179.26795269539235 245.8758276503404) rotate(331.86618371232896)"><path class="outline" fill="#A5ABB6" stroke="none" d="M 24.018736134675446,-6.953439040707552 L 24.277555179777966,-5.987513214418485 A 54.24559777518426 54.24559777518426 0 0 1 24.901162567234895,-6.150643428082333 L 24.65383952204819,-7.11957650694773 A 55.24559777518426 55.24559777518426 0 0 0 24.018736134675446,-6.953439040707552 Z M 49.7734159226906,-7.635035674751137 L 49.56604977249809,-6.65677227476403 A 54.24559777518426 54.24559777518426 0 0 1 50.19582432162633,-6.519361730877556 L 49.538896802426216,-3.5921708873353073 L 57.13542420975827,-5.47439599333432 L 51.071727680559825,-10.422282855600553 L 50.41480016135971,-7.495092012058304 A 55.24559777518426 55.24559777518426 0 0 0 49.7734159226906,-7.635035674751137"/><text text-anchor="middle" pointer-events="none" font-size="8px" fill="#000000" x="37.194193874771834" y="-5.324364655285571" font-family="sans-serif">idiom</text></g><g class="relationship" transform="translate(251.1639157722328 207.43241003601753) rotate(511.86618371232896)"><path class="outline" fill="#A5ABB6" stroke="none" d="M 24.018736134675446,-6.953439040707552 L 24.277555179777966,-5.987513214418485 A 54.24559777518426 54.24559777518426 0 0 1 24.901162567234895,-6.150643428082333 L 24.65383952204819,-7.11957650694773 A 55.24559777518426 55.24559777518426 0 0 0 24.018736134675446,-6.953439040707552 Z M 49.7734159226906,-7.635035674751137 L 49.56604977249809,-6.65677227476403 A 54.24559777518426 54.24559777518426 0 0 1 50.19582432162633,-6.519361730877556 L 49.538896802426216,-3.5921708873353073 L 57.13542420975827,-5.47439599333432 L 51.071727680559825,-10.422282855600553 L 50.41480016135971,-7.495092012058304 A 55.24559777518426 55.24559777518426 0 0 0 49.7734159226906,-7.635035674751137"/><text text-anchor="middle" pointer-events="none" font-size="8px" fill="#000000" x="37.194193874771834" y="-5.324364655285571" transform="rotate(180 37.194193874771834 -8.32436465528557)" font-family="sans-serif">idiom</text></g><g class="relationship" transform="translate(251.1639157722328 207.43241003601753) rotate(307.25235080952143)"><path class="outline" fill="#A5ABB6" stroke="none" d="M 6.953439040707552 24.018736134675446 L 17.306200844808384 62.65576918623819 A 17.916697508022974 17.916697508022974 0 1 1 -17.306200844808384 62.65576918623819 L -8.765172356425198 30.780216918698923 L -4.901469051268926 31.815493099109005 L -6.4704761275630185 24.148145657226706 L -11.662949835292403 30.00375978339136 L -7.79924653013613 31.039035963801442 L -16.340275018519314 62.91458823134071 A 16.916697508022974 16.916697508022974 0 1 0 16.340275018519314 62.91458823134071 L 5.987513214418485 24.277555179777966 Z"/><text text-anchor="middle" pointer-events="none" font-size="8px" fill="#000000" x="0" y="94.20964923467838" font-family="sans-serif">idiom</text></g><g class="relationship" transform="translate(284.99172084341114 56.57196940972247) rotate(455.3678529852513)"><path class="outline" fill="#A5ABB6" stroke="none" d="M 21.40063509461097,12.933012701892217 L 21.90063509461097,12.06698729810778 A 48.738536179138464 48.738536179138464 0 0 0 32.37443856768962,16.573923333604917 L 32.0893363527725,17.53242045256217 A 49.738536179138464 49.738536179138464 0 0 1 21.40063509461097,12.933012701892217 Z M 57.172826721511996,18.387016080200183 L 56.95362196851999,17.411337200513984 A 48.738536179138464 48.738536179138464 0 0 0 67.70988528180874,13.627710480561829 L 66.39019143510644,10.933567174986543 L 74.21616863593478,10.997448722519046 L 69.46947707741178,17.21990155466221 L 68.14978323070949,14.525758249086925 A 49.738536179138464 49.738536179138464 0 0 1 57.172826721511996,18.387016080200183"/><text text-anchor="middle" pointer-events="none" font-size="8px" fill="#000000" x="44.593316857718996" y="22.06816060092686" transform="rotate(180 44.593316857718996 19.06816060092686)" font-family="sans-serif">idiom</text></g><g class="relationship" transform="translate(284.99172084341114 56.57196940972247) rotate(455.3678529852513)"><path class="outline" fill="#A5ABB6" stroke="none" d="M 25 0.5 L 32.27508767453109 0.5 L 32.27508767453109 -0.5 L 25 -0.5 Z M 57.39227517453109 0.5 L 64.66736284906219 0.5 L 64.66736284906219 3.5 L 71.66736284906219 0 L 64.66736284906219 -3.5 L 64.66736284906219 -0.5 L 57.39227517453109 -0.5 Z"/><text text-anchor="middle" pointer-events="none" font-size="8px" fill="#000000" x="44.83368142453109" y="3" transform="rotate(180 44.83368142453109 0)" font-family="sans-serif">idiom</text></g><g class="relationship" transform="translate(284.99172084341114 56.57196940972247) rotate(455.3678529852513)"><path class="outline" fill="#A5ABB6" stroke="none" d="M 21.40063509461097,-12.933012701892217 L 21.90063509461097,-12.06698729810778 A 48.738536179138464 48.738536179138464 0 0 1 32.37443856768963,-16.573923333604917 L 32.08933635277251,-17.53242045256217 A 49.738536179138464 49.738536179138464 0 0 0 21.40063509461097,-12.933012701892217 Z M 57.17282672151199,-18.387016080200183 L 56.95362196851999,-17.411337200513984 A 48.738536179138464 48.738536179138464 0 0 1 67.70988528180874,-13.627710480561829 L 66.39019143510644,-10.933567174986543 L 74.21616863593478,-10.997448722519046 L 69.46947707741178,-17.21990155466221 L 68.14978323070949,-14.525758249086925 A 49.738536179138464 49.738536179138464 0 0 0 57.17282672151199,-18.387016080200183"/><text text-anchor="middle" pointer-events="none" font-size="8px" fill="#000000" x="44.593316857719" y="-16.06816060092686" transform="rotate(180 44.593316857719 -19.06816060092686)" font-family="sans-serif">idiom</text></g><g class="relationship" transform="translate(284.99172084341114 56.57196940972247) rotate(484.59453741105966)"><path class="outline" fill="#A5ABB6" stroke="none" d="M 25 0.5 L 47.73407554700889 0.5 L 47.73407554700889 -0.5 L 25 -0.5 Z M 72.8512630470089 0.5 L 95.58533859401778 0.5 L 95.58533859401778 3.5 L 102.58533859401778 0 L 95.58533859401778 -3.5 L 95.58533859401778 -0.5 L 72.8512630470089 -0.5 Z"/><text text-anchor="middle" pointer-events="none" font-size="8px" fill="#000000" x="60.29266929700889" y="3" transform="rotate(180 60.29266929700889 0)" font-family="sans-serif">idiom</text></g><g class="relationship" transform="translate(284.99172084341114 56.57196940972247) rotate(462.6385179067139)"><path class="outline" fill="#A5ABB6" stroke="none" d="M 25 0.5 L 61.24469360230724 0.5 L 61.24469360230724 -0.5 L 25 -0.5 Z M 86.36188110230724 0.5 L 122.60657470461447 0.5 L 122.60657470461447 3.5 L 129.60657470461447 0 L 122.60657470461447 -3.5 L 122.60657470461447 -0.5 L 86.36188110230724 -0.5 Z"/><text text-anchor="middle" pointer-events="none" font-size="8px" fill="#000000" x="73.80328735230724" y="3" transform="rotate(180 73.80328735230724 0)" font-family="sans-serif">idiom</text></g><g class="relationship" transform="translate(237.29476575742925 107.01084882627933) rotate(313.3995669709798)"><path class="outline" fill="#A5ABB6" stroke="none" d="M 25 0.5 L 31.20979718059491 0.5 L 31.20979718059491 -0.5 L 25 -0.5 Z M 31.20979718059491 0.5 L 37.41959436118982 0.5 L 37.41959436118982 3.5 L 44.41959436118982 0 L 37.41959436118982 -3.5 L 37.41959436118982 -0.5 L 31.20979718059491 -0.5 Z"/><text text-anchor="middle" pointer-events="none" font-size="8px" fill="#000000" x="31.20979718059491" y="3" font-family="sans-serif"/></g><g class="relationship" transform="translate(400.1181174284175 -37.42181433021968) rotate(537.24829031727)"><path class="outline" fill="#A5ABB6" stroke="none" d="M 25 0.5 L 152.43567810167426 0.5 L 152.43567810167426 -0.5 L 25 -0.5 Z M 177.55286560167426 0.5 L 304.9885437033485 0.5 L 304.9885437033485 3.5 L 311.9885437033485 0 L 304.9885437033485 -3.5 L 304.9885437033485 -0.5 L 177.55286560167426 -0.5 Z"/><text text-anchor="middle" pointer-events="none" font-size="8px" fill="#000000" x="164.99427185167426" y="3" transform="rotate(180 164.99427185167426 0)" font-family="sans-serif">idiom</text></g><g class="relationship" transform="translate(-40.010112363151194 -128.4721949682503) rotate(406.00583831791323)"><path class="outline" fill="#A5ABB6" stroke="none" d="M 25 0.5 L 58.466654537627235 0.5 L 58.466654537627235 -0.5 L 25 -0.5 Z M 83.58384203762724 0.5 L 117.05049657525447 0.5 L 117.05049657525447 3.5 L 124.05049657525447 0 L 117.05049657525447 -3.5 L 117.05049657525447 -0.5 L 83.58384203762724 -0.5 Z"/><text text-anchor="middle" pointer-events="none" font-size="8px" fill="#000000" x="71.02524828762724" y="3" font-family="sans-serif">idiom</text></g><g class="relationship" transform="translate(124.43956531854235 -99.19617241287567) rotate(488.00833992743543)"><path class="outline" fill="#A5ABB6" stroke="none" d="M 25 0.5 L 33.40859197527914 0.5 L 33.40859197527914 -0.5 L 25 -0.5 Z M 58.52577947527914 0.5 L 66.93437145055827 0.5 L 66.93437145055827 3.5 L 73.93437145055827 0 L 66.93437145055827 -3.5 L 66.93437145055827 -0.5 L 58.52577947527914 -0.5 Z"/><text text-anchor="middle" pointer-events="none" font-size="8px" fill="#000000" x="45.96718572527914" y="3" transform="rotate(180 45.96718572527914 0)" font-family="sans-serif">idiom</text></g><g class="relationship" transform="translate(170.89245666381532 97.005139881687) rotate(227.75938785150652)"><path class="outline" fill="#A5ABB6" stroke="none" d="M 24.018736134675446,6.953439040707552 L 24.277555179777966,5.987513214418485 A 209.9376081986688 209.9376081986688 0 0 0 63.81245336844026,12.618567800511443 L 63.7419516930929,13.616079461482514 A 210.9376081986688 210.9376081986688 0 0 1 24.018736134675446,6.953439040707552 Z M 88.90238594463484,13.889879685126544 L 88.85360858545441,12.891070008946258 A 209.9376081986688 209.9376081986688 0 0 0 128.52344779330943,7.121935157466296 L 127.8102353047512,4.207946834537637 L 135.44162262823602,5.943437404651876 L 129.47439777805374,11.007252921371174 L 128.7611852894955,8.093264598442516 A 210.9376081986688 210.9376081986688 0 0 1 88.90238594463484,13.889879685126544"/><text text-anchor="middle" pointer-events="none" font-size="8px" fill="#000000" x="76.32352337652607" y="16.62850466037031" transform="rotate(180 76.32352337652607 13.62850466037031)" font-family="sans-serif">idiom</text></g><g class="relationship" transform="translate(170.89245666381532 97.005139881687) rotate(227.75938785150652)"><path class="outline" fill="#A5ABB6" stroke="none" d="M 24.018736134675446,-6.953439040707552 L 24.277555179777966,-5.987513214418485 A 209.9376081986688 209.9376081986688 0 0 1 63.81245336844026,-12.618567800511443 L 63.74195169309289,-13.616079461482514 A 210.9376081986688 210.9376081986688 0 0 0 24.018736134675446,-6.953439040707552 Z M 88.9023859446348,-13.889879685126573 L 88.85360858545435,-12.891070008946286 A 209.9376081986688 209.9376081986688 0 0 1 128.52344779330943,-7.121935157466296 L 127.8102353047512,-4.207946834537637 L 135.44162262823602,-5.943437404651876 L 129.47439777805374,-11.007252921371174 L 128.7611852894955,-8.093264598442516 A 210.9376081986688 210.9376081986688 0 0 0 88.9023859446348,-13.889879685126573"/><text text-anchor="middle" pointer-events="none" font-size="8px" fill="#000000" x="76.32352337652603" y="-10.62850466037031" transform="rotate(180 76.32352337652603 -13.62850466037031)" font-family="sans-serif">idiom</text></g><g class="relationship" transform="translate(215.64714777819412 -91.57487755140261) rotate(515.1882956921356)"><path class="outline" fill="#A5ABB6" stroke="none" d="M 25 0.5 L 67.74133436051788 0.5 L 67.74133436051788 -0.5 L 25 -0.5 Z M 92.85852186051788 0.5 L 135.59985622103576 0.5 L 135.59985622103576 3.5 L 142.59985622103576 0 L 135.59985622103576 -3.5 L 135.59985622103576 -0.5 L 92.85852186051788 -0.5 Z"/><text text-anchor="middle" pointer-events="none" font-size="8px" fill="#000000" x="80.29992811051788" y="3" transform="rotate(180 80.29992811051788 0)" font-family="sans-serif">idiom</text></g><g class="relationship" transform="translate(234.2600600578875 -34.75866867107612) rotate(535.4742219948913)"><path class="outline" fill="#A5ABB6" stroke="none" d="M 24.018736134675446,6.953439040707552 L 24.277555179777966,5.987513214418485 A 232.57811070468597 232.57811070468597 0 0 0 69.58506863966245,13.4354105564 L 69.52105517330769,14.433359591233568 A 233.57811070468597 233.57811070468597 0 0 1 24.018736134675446,6.953439040707552 Z M 94.6786438746252,14.689366631327573 L 94.63495209143659,13.690321573243693 A 232.57811070468597 232.57811070468597 0 0 0 140.08464893288607,7.165981931973723 L 139.36732283895216,4.253003512046529 L 147.00115292837182,5.977717449449153 L 141.04108372479791,11.049953158543314 L 140.323757630864,8.136974738616122 A 233.57811070468597 233.57811070468597 0 0 1 94.6786438746252,14.689366631327573"/><text text-anchor="middle" pointer-events="none" font-size="8px" fill="#000000" x="82.10148798430343" y="17.400353042000972" transform="rotate(180 82.10148798430343 14.400353042000972)" font-family="sans-serif">idiom</text></g><g class="relationship" transform="translate(234.2600600578875 -34.75866867107612) rotate(535.4742219948913)"><path class="outline" fill="#A5ABB6" stroke="none" d="M 24.018736134675446,-6.953439040707552 L 24.277555179777966,-5.987513214418485 A 232.57811070468597 232.57811070468597 0 0 1 69.5850686396625,-13.4354105564 L 69.52105517330772,-14.433359591233568 A 233.57811070468597 233.57811070468597 0 0 0 24.018736134675446,-6.953439040707552 Z M 94.67864387462515,-14.689366631327573 L 94.63495209143655,-13.690321573243693 A 232.57811070468597 232.57811070468597 0 0 1 140.08464893288607,-7.165981931973723 L 139.36732283895216,-4.253003512046529 L 147.00115292837182,-5.977717449449153 L 141.04108372479791,-11.049953158543314 L 140.323757630864,-8.136974738616122 A 233.57811070468597 233.57811070468597 0 0 0 94.67864387462515,-14.689366631327573"/><text text-anchor="middle" pointer-events="none" font-size="8px" fill="#000000" x="82.10148798430343" y="-11.400353042000972" transform="rotate(180 82.10148798430343 -14.400353042000972)" font-family="sans-serif">idiom</text></g><g class="relationship" transform="translate(94.5340824836396 -172.3815833855501) rotate(461.59701405685365)"><path class="outline" fill="#A5ABB6" stroke="none" d="M 25 0.5 L 61.085186783335345 0.5 L 61.085186783335345 -0.5 L 25 -0.5 Z M 86.20237428333535 0.5 L 122.28756106667069 0.5 L 122.28756106667069 3.5 L 129.2875610666707 0 L 122.28756106667069 -3.5 L 122.28756106667069 -0.5 L 86.20237428333535 -0.5 Z"/><text text-anchor="middle" pointer-events="none" font-size="8px" fill="#000000" x="73.64378053333535" y="3" transform="rotate(180 73.64378053333535 0)" font-family="sans-serif">idiom</text></g><g class="relationship" transform="translate(181.626069368063 32.781289824358645) rotate(204.58032431745232)"><path class="outline" fill="#A5ABB6" stroke="none" d="M 25 0.5 L 48.8801894064332 0.5 L 48.8801894064332 -0.5 L 25 -0.5 Z M 73.9973769064332 0.5 L 97.8775663128664 0.5 L 97.8775663128664 3.5 L 104.8775663128664 0 L 97.8775663128664 -3.5 L 97.8775663128664 -0.5 L 73.9973769064332 -0.5 Z"/><text text-anchor="middle" pointer-events="none" font-size="8px" fill="#000000" x="61.4387831564332" y="3" transform="rotate(180 61.4387831564332 0)" font-family="sans-serif">idiom</text></g><g class="relationship" transform="translate(63.51813688518273 -21.24369065664111) rotate(254.24335704438909)"><path class="outline" fill="#A5ABB6" stroke="none" d="M 25 0.5 L 57.64786385069411 0.5 L 57.64786385069411 -0.5 L 25 -0.5 Z M 82.76505135069411 0.5 L 115.41291520138822 0.5 L 115.41291520138822 3.5 L 122.41291520138822 0 L 115.41291520138822 -3.5 L 115.41291520138822 -0.5 L 82.76505135069411 -0.5 Z"/><text text-anchor="middle" pointer-events="none" font-size="8px" fill="#000000" x="70.20645760069411" y="3" transform="rotate(180 70.20645760069411 0)" font-family="sans-serif">idiom</text></g><g class="relationship" transform="translate(179.26795269539235 245.8758276503404) rotate(266.77992200668626)"><path class="outline" fill="#A5ABB6" stroke="none" d="M 25 0.5 L 58.494458854314686 0.5 L 58.494458854314686 -0.5 L 25 -0.5 Z M 83.61164635431469 0.5 L 117.10610520862937 0.5 L 117.10610520862937 3.5 L 124.10610520862937 0 L 117.10610520862937 -3.5 L 117.10610520862937 -0.5 L 83.61164635431469 -0.5 Z"/><text text-anchor="middle" pointer-events="none" font-size="8px" fill="#000000" x="71.05305260431469" y="3" transform="rotate(180 71.05305260431469 0)" font-family="sans-serif">idiom</text></g><g class="relationship" transform="translate(284.99172084341114 56.57196940972247) rotate(192.96149265760778)"><path class="outline" fill="#A5ABB6" stroke="none" d="M 25 0.5 L 36.97548571796236 0.5 L 36.97548571796236 -0.5 L 25 -0.5 Z M 62.09267321796236 0.5 L 74.06815893592471 0.5 L 74.06815893592471 3.5 L 81.06815893592471 0 L 74.06815893592471 -3.5 L 74.06815893592471 -0.5 L 62.09267321796236 -0.5 Z"/><text text-anchor="middle" pointer-events="none" font-size="8px" fill="#000000" x="49.53407946796236" y="3" transform="rotate(180 49.53407946796236 0)" font-family="sans-serif">idiom</text></g><g class="relationship" transform="translate(284.99172084341114 56.57196940972247) rotate(240.94903101738373)"><path class="outline" fill="#A5ABB6" stroke="none" d="M 25 0.5 L 36.17881348443128 0.5 L 36.17881348443128 -0.5 L 25 -0.5 Z M 61.29600098443128 0.5 L 72.47481446886256 0.5 L 72.47481446886256 3.5 L 79.47481446886256 0 L 72.47481446886256 -3.5 L 72.47481446886256 -0.5 L 61.29600098443128 -0.5 Z"/><text text-anchor="middle" pointer-events="none" font-size="8px" fill="#000000" x="48.73740723443128" y="3" transform="rotate(180 48.73740723443128 0)" font-family="sans-serif">idiom</text></g><g class="relationship" transform="translate(284.99172084341114 56.57196940972247) rotate(520.4872833483882)"><path class="outline" fill="#A5ABB6" stroke="none" d="M 24.018736134675446,6.953439040707552 L 24.277555179777966,5.987513214418485 A 133.68480472728208 133.68480472728208 0 0 0 44.49896202939471,9.76719291616385 L 44.39140480414425,10.761391811403854 A 134.68480472728208 134.68480472728208 0 0 1 24.018736134675446,6.953439040707552 Z M 69.56286620776253,11.118193983236495 L 69.48353181257676,10.121345923730672 A 133.68480472728208 133.68480472728208 0 0 0 89.8039456496507,6.916341225518591 L 89.10993520406423,3.9977200610957633 L 96.72973010756839,5.783420379887288 L 90.72929291043268,10.807836111415696 L 90.0352824648462,7.889214946992867 A 134.68480472728208 134.68480472728208 0 0 1 69.56286620776253,11.118193983236495"/><text text-anchor="middle" pointer-events="none" font-size="8px" fill="#000000" x="56.97586769236646" y="14.029233834875555" transform="rotate(180 56.97586769236646 11.029233834875555)" font-family="sans-serif">idiom</text></g><g class="relationship" transform="translate(284.99172084341114 56.57196940972247) rotate(520.4872833483882)"><path class="outline" fill="#A5ABB6" stroke="none" d="M 24.018736134675446,-6.953439040707552 L 24.277555179777966,-5.987513214418485 A 133.68480472728208 133.68480472728208 0 0 1 44.49896202939463,-9.767192916163822 L 44.39140480414417,-10.761391811403826 A 134.68480472728208 134.68480472728208 0 0 0 24.018736134675446,-6.953439040707552 Z M 69.5628662077625,-11.118193983236495 L 69.48353181257673,-10.121345923730672 A 133.68480472728208 133.68480472728208 0 0 1 89.8039456496507,-6.916341225518591 L 89.10993520406423,-3.9977200610957633 L 96.72973010756839,-5.783420379887288 L 90.72929291043268,-10.807836111415696 L 90.0352824648462,-7.889214946992867 A 134.68480472728208 134.68480472728208 0 0 0 69.5628662077625,-11.118193983236495"/><text text-anchor="middle" pointer-events="none" font-size="8px" fill="#000000" x="56.9758676923664" y="-8.029233834875527" transform="rotate(180 56.9758676923664 -11.029233834875527)" font-family="sans-serif">idiom</text></g><g class="relationship" transform="translate(284.99172084341114 56.57196940972247) rotate(244.9166469563853)"><path class="outline" fill="#A5ABB6" stroke="none" d="M 25 0.5 L 65.72795477437569 0.5 L 65.72795477437569 -0.5 L 25 -0.5 Z M 90.84514227437569 0.5 L 131.57309704875138 0.5 L 131.57309704875138 3.5 L 138.57309704875138 0 L 131.57309704875138 -3.5 L 131.57309704875138 -0.5 L 90.84514227437569 -0.5 Z"/><text text-anchor="middle" pointer-events="none" font-size="8px" fill="#000000" x="78.28654852437569" y="3" transform="rotate(180 78.28654852437569 0)" font-family="sans-serif">idiom</text></g><g class="relationship selected" transform="translate(284.99172084341114 56.57196940972247) rotate(320.77042810989633)"><path class="outline" fill="#A5ABB6" stroke="none" d="M 25 0.5 L 58.253112212787556 0.5 L 58.253112212787556 -0.5 L 25 -0.5 Z M 83.37029971278756 0.5 L 116.62341192557511 0.5 L 116.62341192557511 3.5 L 123.62341192557511 0 L 116.62341192557511 -3.5 L 116.62341192557511 -0.5 L 83.37029971278756 -0.5 Z"/><text text-anchor="middle" pointer-events="none" font-size="8px" fill="#000000" x="70.81170596278756" y="3" font-family="sans-serif">idiom</text></g><g class="relationship" transform="translate(237.29476575742925 107.01084882627933) rotate(233.131817981717)"><path class="outline" fill="#A5ABB6" stroke="none" d="M 25 0.5 L 30.333838788375964 0.5 L 30.333838788375964 -0.5 L 25 -0.5 Z M 55.451026288375964 0.5 L 60.78486507675193 0.5 L 60.78486507675193 3.5 L 67.78486507675193 0 L 60.78486507675193 -3.5 L 60.78486507675193 -0.5 L 55.451026288375964 -0.5 Z"/><text text-anchor="middle" pointer-events="none" font-size="8px" fill="#000000" x="42.892432538375964" y="3" transform="rotate(180 42.892432538375964 0)" font-family="sans-serif">idiom</text></g><g class="relationship" transform="translate(275.9485163731533 152.81540811128465) rotate(207.97914964385035)"><path class="outline" fill="#A5ABB6" stroke="none" d="M 25 0.5 L 43.421574628863105 0.5 L 43.421574628863105 -0.5 L 25 -0.5 Z M 68.53876212886311 0.5 L 86.96033675772621 0.5 L 86.96033675772621 3.5 L 93.96033675772621 0 L 86.96033675772621 -3.5 L 86.96033675772621 -0.5 L 68.53876212886311 -0.5 Z"/><text text-anchor="middle" pointer-events="none" font-size="8px" fill="#000000" x="55.980168378863105" y="3" transform="rotate(180 55.980168378863105 0)" font-family="sans-serif">idiom</text></g><g class="relationship" transform="translate(129.15615543244448 213.09175625986725) rotate(289.77489351661796)"><path class="outline" fill="#A5ABB6" stroke="none" d="M 25 0.5 L 45.622078552210105 0.5 L 45.622078552210105 -0.5 L 25 -0.5 Z M 70.7392660522101 0.5 L 91.36134460442021 0.5 L 91.36134460442021 3.5 L 98.36134460442021 0 L 91.36134460442021 -3.5 L 91.36134460442021 -0.5 L 70.7392660522101 -0.5 Z"/><text text-anchor="middle" pointer-events="none" font-size="8px" fill="#000000" x="58.180672302210105" y="3" font-family="sans-serif">idiom</text></g><g class="relationship" transform="translate(124.43956531854235 -99.19617241287567) rotate(364.7765322330765)"><path class="outline" fill="#A5ABB6" stroke="none" d="M 25 0.5 L 29.70412916259474 0.5 L 29.70412916259474 -0.5 L 25 -0.5 Z M 54.82131666259474 0.5 L 59.52544582518948 0.5 L 59.52544582518948 3.5 L 66.52544582518948 0 L 59.52544582518948 -3.5 L 59.52544582518948 -0.5 L 54.82131666259474 -0.5 Z"/><text text-anchor="middle" pointer-events="none" font-size="8px" fill="#000000" x="42.26272291259474" y="3" font-family="sans-serif">idiom</text></g><g class="relationship" transform="translate(124.43956531854235 -99.19617241287567) rotate(426.5726703701016)"><path class="outline" fill="#A5ABB6" stroke="none" d="M 25 0.5 L 55.858627386502576 0.5 L 55.858627386502576 -0.5 L 25 -0.5 Z M 80.97581488650258 0.5 L 111.83444227300515 0.5 L 111.83444227300515 3.5 L 118.83444227300515 0 L 111.83444227300515 -3.5 L 111.83444227300515 -0.5 L 80.97581488650258 -0.5 Z"/><text text-anchor="middle" pointer-events="none" font-size="8px" fill="#000000" x="68.41722113650258" y="3" font-family="sans-serif">idiom</text></g><g class="relationship" transform="translate(234.2600600578875 -34.75866867107612) rotate(487.9293397443261)"><path class="outline" fill="#A5ABB6" stroke="none" d="M 24.018736134675446,-6.953439040707552 L 24.277555179777966,-5.987513214418485 A 62.61545295426485 62.61545295426485 0 0 1 26.905525704196627,-6.631157612450316 L 26.68867665851802,-7.60736276065856 A 63.61545295426485 63.61545295426485 0 0 0 24.018736134675446,-6.953439040707552 Z M 51.8332842874472,-8.100447216909231 L 51.65487390383264,-7.116491051717659 A 62.61545295426485 62.61545295426485 0 0 1 54.306057995726526,-6.57637060291035 L 53.64380464987467,-3.6503800858532602 L 61.243744759835046,-5.518777882098853 L 55.189062456862345,-10.477691292319802 L 54.526809111010486,-7.551700775262713 A 63.61545295426485 63.61545295426485 0 0 0 51.8332842874472,-8.100447216909231"/><text text-anchor="middle" pointer-events="none" font-size="8px" fill="#000000" x="39.24617405955789" y="-5.608951008257598" transform="rotate(180 39.24617405955789 -8.608951008257598)" font-family="sans-serif">idiom</text></g><g class="relationship" transform="translate(181.626069368063 32.781289824358645) rotate(307.9293397443261)"><path class="outline" fill="#A5ABB6" stroke="none" d="M 24.018736134675446,-6.953439040707552 L 24.277555179777966,-5.987513214418485 A 62.61545295426485 62.61545295426485 0 0 1 26.905525704196627,-6.631157612450316 L 26.68867665851802,-7.60736276065856 A 63.61545295426485 63.61545295426485 0 0 0 24.018736134675446,-6.953439040707552 Z M 51.8332842874472,-8.100447216909231 L 51.65487390383264,-7.116491051717659 A 62.61545295426485 62.61545295426485 0 0 1 54.306057995726526,-6.57637060291035 L 53.64380464987467,-3.6503800858532602 L 61.243744759835046,-5.518777882098853 L 55.189062456862345,-10.477691292319802 L 54.526809111010486,-7.551700775262713 A 63.61545295426485 63.61545295426485 0 0 0 51.8332842874472,-8.100447216909231"/><text text-anchor="middle" pointer-events="none" font-size="8px" fill="#000000" x="39.24617405955789" y="-5.608951008257598" font-family="sans-serif">idiom</text></g><g class="relationship" transform="translate(-121.47190082346792 230.2676415063476) rotate(302.7233860144282)"><path class="outline" fill="#A5ABB6" stroke="none" d="M 25 0.5 L 58.303541906578545 0.5 L 58.303541906578545 -0.5 L 25 -0.5 Z M 83.42072940657854 0.5 L 116.72427131315709 0.5 L 116.72427131315709 3.5 L 123.72427131315709 0 L 116.72427131315709 -3.5 L 116.72427131315709 -0.5 L 83.42072940657854 -0.5 Z"/><text text-anchor="middle" pointer-events="none" font-size="8px" fill="#000000" x="70.86213565657854" y="3" font-family="sans-serif">idiom</text></g><g class="relationship" transform="translate(-41.07397667109018 105.1473686900766) rotate(401.7146981760737)"><path class="outline" fill="#A5ABB6" stroke="none" d="M 25 0.5 L 58.255891175414305 0.5 L 58.255891175414305 -0.5 L 25 -0.5 Z M 83.3730786754143 0.5 L 116.62896985082861 0.5 L 116.62896985082861 3.5 L 123.62896985082861 0 L 116.62896985082861 -3.5 L 116.62896985082861 -0.5 L 83.3730786754143 -0.5 Z"/><text text-anchor="middle" pointer-events="none" font-size="8px" fill="#000000" x="70.8144849254143" y="3" font-family="sans-serif">idiom</text></g><g class="relationship" transform="translate(-64.89732594774053 250.70981844496808) rotate(279.2948570708196)"><path class="outline" fill="#A5ABB6" stroke="none" d="M 25 0.5 L 57.6909465017917 0.5 L 57.6909465017917 -0.5 L 25 -0.5 Z M 82.8081340017917 0.5 L 115.4990805035834 0.5 L 115.4990805035834 3.5 L 122.4990805035834 0 L 115.4990805035834 -3.5 L 115.4990805035834 -0.5 L 82.8081340017917 -0.5 Z"/><text text-anchor="middle" pointer-events="none" font-size="8px" fill="#000000" x="70.2495402517917" y="3" font-family="sans-serif">idiom</text></g><g class="relationship" transform="translate(-150.60496928332796 15.08907484647337) rotate(399.4276391826146)"><path class="outline" fill="#A5ABB6" stroke="none" d="M 25 0.5 L 54.841925699160015 0.5 L 54.841925699160015 -0.5 L 25 -0.5 Z M 79.95911319916002 0.5 L 109.80103889832003 0.5 L 109.80103889832003 3.5 L 116.80103889832003 0 L 109.80103889832003 -3.5 L 109.80103889832003 -0.5 L 79.95911319916002 -0.5 Z"/><text text-anchor="middle" pointer-events="none" font-size="8px" fill="#000000" x="67.40051944916002" y="3" font-family="sans-serif">idiom</text></g><g class="relationship" transform="translate(-41.07397667109018 105.1473686900766) rotate(529.9780656709642)"><path class="outline" fill="#A5ABB6" stroke="none" d="M 25 0.5 L 56.07294721755392 0.5 L 56.07294721755392 -0.5 L 25 -0.5 Z M 81.19013471755392 0.5 L 112.26308193510783 0.5 L 112.26308193510783 3.5 L 119.26308193510783 0 L 112.26308193510783 -3.5 L 112.26308193510783 -0.5 L 81.19013471755392 -0.5 Z"/><text text-anchor="middle" pointer-events="none" font-size="8px" fill="#000000" x="68.63154096755392" y="3" transform="rotate(180 68.63154096755392 0)" font-family="sans-serif">idiom</text></g><g class="relationship" transform="translate(-20.164341416883804 -35.99331265001064) rotate(458.4269311596521)"><path class="outline" fill="#A5ABB6" stroke="none" d="M 25 0.5 L 55.281971105501384 0.5 L 55.281971105501384 -0.5 L 25 -0.5 Z M 80.39915860550138 0.5 L 110.68112971100277 0.5 L 110.68112971100277 3.5 L 117.68112971100277 0 L 110.68112971100277 -3.5 L 110.68112971100277 -0.5 L 80.39915860550138 -0.5 Z"/><text text-anchor="middle" pointer-events="none" font-size="8px" fill="#000000" x="67.84056485550138" y="3" transform="rotate(180 67.84056485550138 0)" font-family="sans-serif">idiom</text></g><g class="relationship" transform="translate(-179.60702806135714 70.35823349344538) rotate(374.0969023287246)"><path class="outline" fill="#A5ABB6" stroke="none" d="M 25 0.5 L 55.3586490125637 0.5 L 55.3586490125637 -0.5 L 25 -0.5 Z M 80.4758365125637 0.5 L 110.8344855251274 0.5 L 110.8344855251274 3.5 L 117.8344855251274 0 L 110.8344855251274 -3.5 L 110.8344855251274 -0.5 L 80.4758365125637 -0.5 Z"/><text text-anchor="middle" pointer-events="none" font-size="8px" fill="#000000" x="67.9172427625637" y="3" font-family="sans-serif">idiom</text></g><g class="relationship" transform="translate(46.989748387299116 44.82454708124227) rotate(505.5892241916466)"><path class="outline" fill="#A5ABB6" stroke="none" d="M 25 0.5 L 37.31289320232978 0.5 L 37.31289320232978 -0.5 L 25 -0.5 Z M 62.43008070232978 0.5 L 74.74297390465956 0.5 L 74.74297390465956 3.5 L 81.74297390465956 0 L 74.74297390465956 -3.5 L 74.74297390465956 -0.5 L 62.43008070232978 -0.5 Z"/><text text-anchor="middle" pointer-events="none" font-size="8px" fill="#000000" x="49.87148695232978" y="3" transform="rotate(180 49.87148695232978 0)" font-family="sans-serif">idiom</text></g><g class="relationship" transform="translate(-162.64941387122923 186.637562331592) rotate(326.16664557513565)"><path class="outline" fill="#A5ABB6" stroke="none" d="M 25 0.5 L 57.1213874438631 0.5 L 57.1213874438631 -0.5 L 25 -0.5 Z M 82.2385749438631 0.5 L 114.3599623877262 0.5 L 114.3599623877262 3.5 L 121.3599623877262 0 L 114.3599623877262 -3.5 L 114.3599623877262 -0.5 L 82.2385749438631 -0.5 Z"/><text text-anchor="middle" pointer-events="none" font-size="8px" fill="#000000" x="69.6799811938631" y="3" font-family="sans-serif">idiom</text></g><g class="relationship" transform="translate(251.1639157722328 207.43241003601753) rotate(181.06938820885387)"><path class="outline" fill="#A5ABB6" stroke="none" d="M 25 0.5 L 74.60279515581072 0.5 L 74.60279515581072 -0.5 L 25 -0.5 Z M 99.71998265581072 0.5 L 149.32277781162145 0.5 L 149.32277781162145 3.5 L 156.32277781162145 0 L 149.32277781162145 -3.5 L 149.32277781162145 -0.5 L 99.71998265581072 -0.5 Z"/><text text-anchor="middle" pointer-events="none" font-size="8px" fill="#000000" x="87.16138890581072" y="3" transform="rotate(180 87.16138890581072 0)" font-family="sans-serif">idiom</text></g><g class="relationship" transform="translate(124.43956531854235 -99.19617241287567) rotate(516.3910284129482)"><path class="outline" fill="#A5ABB6" stroke="none" d="M 25 0.5 L 62.847824438497526 0.5 L 62.847824438497526 -0.5 L 25 -0.5 Z M 87.96501193849753 0.5 L 125.81283637699505 0.5 L 125.81283637699505 3.5 L 132.81283637699505 0 L 125.81283637699505 -3.5 L 125.81283637699505 -0.5 L 87.96501193849753 -0.5 Z"/><text text-anchor="middle" pointer-events="none" font-size="8px" fill="#000000" x="75.40641818849753" y="3" transform="rotate(180 75.40641818849753 0)" font-family="sans-serif">idiom</text></g><g class="relationship" transform="translate(181.626069368063 32.781289824358645) rotate(534.888480262351)"><path class="outline" fill="#A5ABB6" stroke="none" d="M 24.018736134675446,6.953439040707552 L 24.277555179777966,5.987513214418485 A 161.63227132897498 161.63227132897498 0 0 0 51.547935116957674,10.83759052960076 L 51.45783473003497,11.833523218228038 A 162.63227132897498 162.63227132897498 0 0 1 24.018736134675446,6.953439040707552 Z M 76.62524434422863,12.154772502858833 L 76.56059432762729,11.156864503415278 A 161.63227132897498 161.63227132897498 0 0 0 103.94588666735879,7.0044392664219215 L 103.24364779414286,4.087786979133563 L 110.86844848323429,5.8519906101327965 L 104.88220516498005,10.8933089828064 L 104.17996629176412,7.976656695518041 A 162.63227132897498 162.63227132897498 0 0 1 76.62524434422863,12.154772502858833"/><text text-anchor="middle" pointer-events="none" font-size="8px" fill="#000000" x="64.04169724550017" y="14.981792623361002" transform="rotate(180 64.04169724550017 11.981792623361002)" font-family="sans-serif">idiom</text></g><g class="relationship" transform="translate(181.626069368063 32.781289824358645) rotate(534.888480262351)"><path class="outline" fill="#A5ABB6" stroke="none" d="M 24.018736134675446,-6.953439040707552 L 24.277555179777966,-5.987513214418485 A 161.63227132897498 161.63227132897498 0 0 1 51.547935116957674,-10.83759052960076 L 51.45783473003496,-11.833523218228038 A 162.63227132897498 162.63227132897498 0 0 0 24.018736134675446,-6.953439040707552 Z M 76.6252443442286,-12.154772502858833 L 76.56059432762726,-11.156864503415278 A 161.63227132897498 161.63227132897498 0 0 1 103.94588666735879,-7.0044392664219215 L 103.24364779414286,-4.087786979133563 L 110.86844848323429,-5.8519906101327965 L 104.88220516498005,-10.8933089828064 L 104.17996629176412,-7.976656695518041 A 162.63227132897498 162.63227132897498 0 0 0 76.6252443442286,-12.154772502858833"/><text text-anchor="middle" pointer-events="none" font-size="8px" fill="#000000" x="64.04169724550015" y="-8.981792623361002" transform="rotate(180 64.04169724550015 -11.981792623361002)" font-family="sans-serif">idiom</text></g></g><g class="layer nodes"><g class="node" transform="translate(99.83145850288889,99.71492982473747)"><circle class="outline" cx="0" cy="0" r="25" fill="#FFC454" stroke="#d7a013" stroke-width="2px"/><text text-anchor="middle" pointer-events="none" font-family="sans-serif" dy="1.5625" font-size="25" fill="#604A0E"/><text text-anchor="middle" pointer-events="none" y="5" font-size="10px" fill="#604A0E" font-family="sans-serif"> 木</text></g><g class="node" transform="translate(179.26795269539235,245.8758276503404)"><circle class="outline" cx="0" cy="0" r="25" fill="#FFC454" stroke="#d7a013" stroke-width="2px"/><text text-anchor="middle" pointer-events="none" font-family="sans-serif" dy="1.5625" font-size="25" fill="#604A0E"/><text text-anchor="middle" pointer-events="none" y="5" font-size="10px" fill="#604A0E" font-family="sans-serif"> 大</text></g><g class="node" transform="translate(251.1639157722328,207.43241003601753)"><circle class="outline" cx="0" cy="0" r="25" fill="#FFC454" stroke="#d7a013" stroke-width="2px"/><text text-anchor="middle" pointer-events="none" font-family="sans-serif" dy="1.5625" font-size="25" fill="#604A0E"/><text text-anchor="middle" pointer-events="none" y="5" font-size="10px" fill="#604A0E" font-family="sans-serif"> 人</text></g><g class="node" transform="translate(284.99172084341114,56.57196940972247)"><circle class="outline" cx="0" cy="0" r="25" fill="#FFC454" stroke="#d7a013" stroke-width="2px"/><text text-anchor="middle" pointer-events="none" font-family="sans-serif" dy="1.5625" font-size="25" fill="#604A0E"/><text text-anchor="middle" pointer-events="none" y="5" font-size="10px" fill="#604A0E" font-family="sans-serif"> 一</text></g><g class="node" transform="translate(237.29476575742925,107.01084882627933)"><circle class="outline" cx="0" cy="0" r="25" fill="#FFC454" stroke="#d7a013" stroke-width="2px"/><text text-anchor="middle" pointer-events="none" font-family="sans-serif" dy="1.5625" font-size="25" fill="#604A0E"/><text text-anchor="middle" pointer-events="none" y="5" font-size="10px" fill="#604A0E" font-family="sans-serif"> 只</text></g><g class="node" transform="translate(275.9485163731533,152.81540811128465)"><circle class="outline" cx="0" cy="0" r="25" fill="#FFC454" stroke="#d7a013" stroke-width="2px"/><text text-anchor="middle" pointer-events="none" font-family="sans-serif" dy="1.5625" font-size="25" fill="#604A0E"/><text text-anchor="middle" pointer-events="none" y="5" font-size="10px" fill="#604A0E" font-family="sans-serif"> 行</text></g><g class="node" transform="translate(63.51813688518273,-21.24369065664111)"><circle class="outline" cx="0" cy="0" r="25" fill="#FFC454" stroke="#d7a013" stroke-width="2px"/><text text-anchor="middle" pointer-events="none" font-family="sans-serif" dy="1.5625" font-size="25" fill="#604A0E"/><text text-anchor="middle" pointer-events="none" y="5" font-size="10px" fill="#604A0E" font-family="sans-serif"> 舟</text></g><g class="node" transform="translate(58.265275481898804,262.9286982368151)"><circle class="outline" cx="0" cy="0" r="25" fill="#FFC454" stroke="#d7a013" stroke-width="2px"/><text text-anchor="middle" pointer-events="none" font-family="sans-serif" dy="1.5625" font-size="25" fill="#604A0E"/><text text-anchor="middle" pointer-events="none" y="5" font-size="10px" fill="#604A0E" font-family="sans-serif"> 良</text></g><g class="node" transform="translate(-41.07397667109018,105.1473686900766)"><circle class="outline" cx="0" cy="0" r="25" fill="#FFC454" stroke="#d7a013" stroke-width="2px"/><text text-anchor="middle" pointer-events="none" font-family="sans-serif" dy="1.5625" font-size="25" fill="#604A0E"/><text text-anchor="middle" pointer-events="none" y="5" font-size="10px" fill="#604A0E" font-family="sans-serif"> 移</text></g><g class="node" transform="translate(129.15615543244448,213.09175625986725)"><circle class="outline" cx="0" cy="0" r="25" fill="#FFC454" stroke="#d7a013" stroke-width="2px"/><text text-anchor="middle" pointer-events="none" font-family="sans-serif" dy="1.5625" font-size="25" fill="#604A0E"/><text text-anchor="middle" pointer-events="none" y="5" font-size="10px" fill="#604A0E" font-family="sans-serif"> 马</text></g><g class="node" transform="translate(212.55319732806868,161.5990084761807)"><circle class="outline" cx="0" cy="0" r="25" fill="#FFC454" stroke="#d7a013" stroke-width="2px"/><text text-anchor="middle" pointer-events="none" font-family="sans-serif" dy="1.5625" font-size="25" fill="#604A0E"/><text text-anchor="middle" pointer-events="none" y="5" font-size="10px" fill="#604A0E" font-family="sans-serif"> 十</text></g><g class="node" transform="translate(400.1181174284175,-37.42181433021968)"><circle class="outline" cx="0" cy="0" r="25" fill="#FFC454" stroke="#d7a013" stroke-width="2px"/><text text-anchor="middle" pointer-events="none" font-family="sans-serif" dy="1.5625" font-size="25" fill="#604A0E"/><text text-anchor="middle" pointer-events="none" y="5" font-size="10px" fill="#604A0E" font-family="sans-serif"> 载</text></g><g class="node" transform="translate(-40.010112363151194,-128.4721949682503)"><circle class="outline" cx="0" cy="0" r="25" fill="#FFC454" stroke="#d7a013" stroke-width="2px"/><text text-anchor="middle" pointer-events="none" font-family="sans-serif" dy="1.5625" font-size="25" fill="#604A0E"/><text text-anchor="middle" pointer-events="none" y="5" font-size="10px" fill="#604A0E" font-family="sans-serif"> 逆</text></g><g class="node" transform="translate(124.43956531854235,-99.19617241287567)"><circle class="outline" cx="0" cy="0" r="25" fill="#FFC454" stroke="#d7a013" stroke-width="2px"/><text text-anchor="middle" pointer-events="none" font-family="sans-serif" dy="1.5625" font-size="25" fill="#604A0E"/><text text-anchor="middle" pointer-events="none" y="5" font-size="10px" fill="#604A0E" font-family="sans-serif"> 不</text></g><g class="node" transform="translate(170.89245666381532,97.005139881687)"><circle class="outline" cx="0" cy="0" r="25" fill="#FFC454" stroke="#d7a013" stroke-width="2px"/><text text-anchor="middle" pointer-events="none" font-family="sans-serif" dy="1.5625" font-size="25" fill="#604A0E"/><text text-anchor="middle" pointer-events="none" y="5" font-size="10px" fill="#604A0E" font-family="sans-serif"> 水</text></g><g class="node" transform="translate(215.64714777819412,-91.57487755140261)"><circle class="outline" cx="0" cy="0" r="25" fill="#FFC454" stroke="#d7a013" stroke-width="2px"/><text text-anchor="middle" pointer-events="none" font-family="sans-serif" dy="1.5625" font-size="25" fill="#604A0E"/><text text-anchor="middle" pointer-events="none" y="5" font-size="10px" fill="#604A0E" font-family="sans-serif"> 破</text></g><g class="node" transform="translate(234.2600600578875,-34.75866867107612)"><circle class="outline" cx="0" cy="0" r="25" fill="#FFC454" stroke="#d7a013" stroke-width="2px"/><text text-anchor="middle" pointer-events="none" font-family="sans-serif" dy="1.5625" font-size="25" fill="#604A0E"/><text text-anchor="middle" pointer-events="none" y="5" font-size="10px" fill="#604A0E" font-family="sans-serif"> 顺</text></g><g class="node" transform="translate(94.5340824836396,-172.3815833855501)"><circle class="outline" cx="0" cy="0" r="25" fill="#FFC454" stroke="#d7a013" stroke-width="2px"/><text text-anchor="middle" pointer-events="none" font-family="sans-serif" dy="1.5625" font-size="25" fill="#604A0E"/><text text-anchor="middle" pointer-events="none" y="5" font-size="10px" fill="#604A0E" font-family="sans-serif"> 亦</text></g><g class="node" transform="translate(181.626069368063,32.781289824358645)"><circle class="outline" cx="0" cy="0" r="25" fill="#FFC454" stroke="#d7a013" stroke-width="2px"/><text text-anchor="middle" pointer-events="none" font-family="sans-serif" dy="1.5625" font-size="25" fill="#604A0E"/><text text-anchor="middle" pointer-events="none" y="5" font-size="10px" fill="#604A0E" font-family="sans-serif"> 风</text></g><g class="node" transform="translate(23.48785955677856,-163.11738259839163)"><circle class="outline" cx="0" cy="0" r="25" fill="#FFC454" stroke="#d7a013" stroke-width="2px"/><text text-anchor="middle" pointer-events="none" font-family="sans-serif" dy="1.5625" font-size="25" fill="#604A0E"/><text text-anchor="middle" pointer-events="none" y="5" font-size="10px" fill="#604A0E" font-family="sans-serif"> 顿</text></g><g class="node" transform="translate(-121.47190082346792,230.2676415063476)"><circle class="outline" cx="0" cy="0" r="25" fill="#FFC454" stroke="#d7a013" stroke-width="2px"/><text text-anchor="middle" pointer-events="none" font-family="sans-serif" dy="1.5625" font-size="25" fill="#604A0E"/><text text-anchor="middle" pointer-events="none" y="5" font-size="10px" fill="#604A0E" font-family="sans-serif"> 寸</text></g><g class="node" transform="translate(69.87271964420376,204.04833559960923)"><circle class="outline" cx="0" cy="0" r="25" fill="#FFC454" stroke="#d7a013" stroke-width="2px"/><text text-anchor="middle" pointer-events="none" font-family="sans-serif" dy="1.5625" font-size="25" fill="#604A0E"/><text text-anchor="middle" pointer-events="none" y="5" font-size="10px" fill="#604A0E" font-family="sans-serif"> 海</text></g><g class="node" transform="translate(-64.89732594774053,250.70981844496808)"><circle class="outline" cx="0" cy="0" r="25" fill="#FFC454" stroke="#d7a013" stroke-width="2px"/><text text-anchor="middle" pointer-events="none" font-family="sans-serif" dy="1.5625" font-size="25" fill="#604A0E"/><text text-anchor="middle" pointer-events="none" y="5" font-size="10px" fill="#604A0E" font-family="sans-serif"> 矢</text></g><g class="node" transform="translate(-150.60496928332796,15.08907484647337)"><circle class="outline" cx="0" cy="0" r="25" fill="#FFC454" stroke="#d7a013" stroke-width="2px"/><text text-anchor="middle" pointer-events="none" font-family="sans-serif" dy="1.5625" font-size="25" fill="#604A0E"/><text text-anchor="middle" pointer-events="none" y="5" font-size="10px" fill="#604A0E" font-family="sans-serif"> 坚</text></g><g class="node" transform="translate(-183.1357776349407,130.25277679914666)"><circle class="outline" cx="0" cy="0" r="25" fill="#FFC454" stroke="#d7a013" stroke-width="2px"/><text text-anchor="middle" pointer-events="none" font-family="sans-serif" dy="1.5625" font-size="25" fill="#604A0E"/><text text-anchor="middle" pointer-events="none" y="5" font-size="10px" fill="#604A0E" font-family="sans-serif"> 俗</text></g><g class="node" transform="translate(-20.164341416883804,-35.99331265001064)"><circle class="outline" cx="0" cy="0" r="25" fill="#FFC454" stroke="#d7a013" stroke-width="2px"/><text text-anchor="middle" pointer-events="none" font-family="sans-serif" dy="1.5625" font-size="25" fill="#604A0E"/><text text-anchor="middle" pointer-events="none" y="5" font-size="10px" fill="#604A0E" font-family="sans-serif"> 本</text></g><g class="node" transform="translate(-179.60702806135714,70.35823349344538)"><circle class="outline" cx="0" cy="0" r="25" fill="#FFC454" stroke="#d7a013" stroke-width="2px"/><text text-anchor="middle" pointer-events="none" font-family="sans-serif" dy="1.5625" font-size="25" fill="#604A0E"/><text text-anchor="middle" pointer-events="none" y="5" font-size="10px" fill="#604A0E" font-family="sans-serif"> 斗</text></g><g class="node" transform="translate(46.989748387299116,44.82454708124227)"><circle class="outline" cx="0" cy="0" r="25" fill="#FFC454" stroke="#d7a013" stroke-width="2px"/><text text-anchor="middle" pointer-events="none" font-family="sans-serif" dy="1.5625" font-size="25" fill="#604A0E"/><text text-anchor="middle" pointer-events="none" y="5" font-size="10px" fill="#604A0E" font-family="sans-serif"> 物</text></g><g class="node" transform="translate(-162.64941387122923,186.637562331592)"><circle class="outline" cx="0" cy="0" r="25" fill="#FFC454" stroke="#d7a013" stroke-width="2px"/><text text-anchor="middle" pointer-events="none" font-family="sans-serif" dy="1.5625" font-size="25" fill="#604A0E"/><text text-anchor="middle" pointer-events="none" y="5" font-size="10px" fill="#604A0E" font-family="sans-serif"> 贫</text></g></g></svg>